<svg width="30" height="30" viewBox="0 0 42 42" fill="none" xmlns="http://www.w3.org/2000/svg">
<path d="M8.32406 8.99934C7.41029 7.30945 7.23505 5.60704 7.89847 3.85456C8.38665 2.59027 9.2253 1.60137 10.3769 0.887866C12.5925 -0.476563 15.6968 -0.401455 18 2.05201C19.3143 0.66255 20.9165 -0.101032 22.8567 0.0116272C24.121 0.0867333 25.2601 0.524853 26.249 1.3385C27.3755 2.26481 28.1015 3.44148 28.3894 4.86849C28.6773 6.30803 28.402 7.65994 27.6634 8.99934C27.9013 8.99934 28.064 8.99934 28.2267 8.99934C30.2545 8.99934 32.2823 8.99934 34.3227 8.99934C35.3992 8.99934 36 9.60018 36 10.6892C36 12.5669 36 14.432 36 16.3097C36 17.3987 35.4117 17.9996 34.3227 17.9996C23.4451 17.9996 12.58 17.9996 1.70236 17.9996C0.588314 17.9996 0 17.3987 0 16.2846C0 14.407 0 12.5418 0 10.6642C0 9.60018 0.600828 8.99934 1.65229 8.99934C3.68011 8.99934 5.70792 8.99934 7.74825 8.99934C7.91098 8.99934 8.07371 8.99934 8.32406 8.99934ZM16.4854 8.99934C16.4854 7.88526 16.5355 6.80874 16.4729 5.73221C16.3727 4.11743 14.9833 2.94077 13.356 3.00336C11.7789 3.06595 10.5146 4.36778 10.5021 5.95753C10.4896 7.58483 11.7288 8.92423 13.331 8.98682C14.3574 9.02437 15.3839 8.99934 16.4854 8.99934ZM19.5146 8.99934C20.5661 8.99934 21.5674 9.01185 22.5688 8.99934C24.1836 8.96178 25.4478 7.69749 25.4979 6.10775C25.548 4.48045 24.3338 3.12853 22.7316 3.01587C21.1043 2.90321 19.6773 4.02981 19.5396 5.64459C19.4395 6.73363 19.5146 7.84771 19.5146 8.99934Z" fill="#3EA57A"/>
<path d="M16.4606 35.9875C15.6344 35.9875 14.8333 35.9875 14.0447 35.9875C10.9404 35.9875 7.8361 35.9875 4.73178 35.9875C3.5927 35.9875 3.00439 35.3992 3.00439 34.26C3.00439 30.004 3.00439 25.7355 3.00439 21.4795C3.00439 21.3418 3.00439 21.2041 3.00439 21.0288C7.49814 21.0288 11.9668 21.0288 16.4731 21.0288C16.4606 25.9984 16.4606 30.9679 16.4606 35.9875Z" fill="#3EA57A"/>
<path d="M19.5273 21.0163C24.0211 21.0163 28.4773 21.0163 32.996 21.0163C32.996 21.2041 32.996 21.3668 32.996 21.5296C32.996 25.7605 32.996 29.9915 32.996 34.2225C32.996 35.4367 32.4328 36 31.2186 36C27.4884 36 23.7582 36 20.028 36C19.8778 36 19.7151 36 19.5273 36C19.5273 30.9929 19.5273 26.0234 19.5273 21.0163Z" fill="#3EA57A"/>
</svg>
