<svg width="25" height="24" viewBox="0 0 25 24" fill="none" xmlns="http://www.w3.org/2000/svg">
<mask id="mask0_181_867" style="mask-type:alpha" maskUnits="userSpaceOnUse" x="0" y="0" width="25" height="24">
<rect x="0.5" width="24" height="24" fill="#D9D9D9"/>
</mask>
<g mask="url(#mask0_181_867)">
<path d="M6.5 22C5.95 22 5.47933 21.8043 5.088 21.413C4.696 21.021 4.5 20.55 4.5 20V8C4.5 7.45 4.696 6.97933 5.088 6.588C5.47933 6.196 5.95 6 6.5 6H8.5C8.5 4.9 8.89167 3.95833 9.675 3.175C10.4583 2.39167 11.4 2 12.5 2C13.6 2 14.5417 2.39167 15.325 3.175C16.1083 3.95833 16.5 4.9 16.5 6H18.5C19.05 6 19.521 6.196 19.913 6.588C20.3043 6.97933 20.5 7.45 20.5 8V20C20.5 20.55 20.3043 21.021 19.913 21.413C19.521 21.8043 19.05 22 18.5 22H6.5ZM6.5 20H18.5V8H16.5V10C16.5 10.2833 16.4043 10.5207 16.213 10.712C16.021 10.904 15.7833 11 15.5 11C15.2167 11 14.9793 10.904 14.788 10.712C14.596 10.5207 14.5 10.2833 14.5 10V8H10.5V10C10.5 10.2833 10.4043 10.5207 10.213 10.712C10.021 10.904 9.78333 11 9.5 11C9.21667 11 8.97933 10.904 8.788 10.712C8.596 10.5207 8.5 10.2833 8.5 10V8H6.5V20ZM10.5 6H14.5C14.5 5.45 14.3043 4.97933 13.913 4.588C13.521 4.196 13.05 4 12.5 4C11.95 4 11.4793 4.196 11.088 4.588C10.696 4.97933 10.5 5.45 10.5 6Z" fill="#3EA57A"/>
</g>
</svg>
