<svg width="20" height="20" viewBox="0 0 20 20" fill="none" xmlns="http://www.w3.org/2000/svg">
<mask id="mask0_181_877" style="mask-type:alpha" maskUnits="userSpaceOnUse" x="0" y="0" width="20" height="20">
<rect width="20" height="20" rx="1" fill="#D9D9D9"/>
</mask>
<g mask="url(#mask0_181_877)">
<path d="M4 9C3.44772 9 3 8.55228 3 8V4C3 3.44772 3.44772 3 4 3H8C8.55228 3 9 3.44772 9 4V8C9 8.55228 8.55228 9 8 9H4ZM4 17C3.44772 17 3 16.5523 3 16V12C3 11.4477 3.44772 11 4 11H8C8.55228 11 9 11.4477 9 12V16C9 16.5523 8.55228 17 8 17H4ZM12 9C11.4477 9 11 8.55228 11 8V4C11 3.44772 11.4477 3 12 3H16C16.5523 3 17 3.44772 17 4V8C17 8.55228 16.5523 9 16 9H12ZM12 17C11.4477 17 11 16.5523 11 16V12C11 11.4477 11.4477 11 12 11H16C16.5523 11 17 11.4477 17 12V16C17 16.5523 16.5523 17 16 17H12Z" fill="#fff"/>
</g>
</svg>
