<svg width="49" height="48" viewBox="0 0 49 48" fill="none" xmlns="http://www.w3.org/2000/svg">
<path d="M48.0318 32.8663C47.6559 33.6745 47.0168 33.9658 46.1428 33.9094C45.5038 33.8624 44.8648 33.9 44.2163 33.9C43.3987 36.6066 41.6507 38.2324 38.775 38.1854C36.0121 38.1384 34.3393 36.522 33.5687 33.9188C28.8322 33.9188 24.0958 33.9188 19.3499 33.9188C18.5511 36.5784 16.8313 38.2042 14.0026 38.1854C11.2021 38.176 9.4917 36.5596 8.7023 33.9C7.81891 33.9 6.94492 33.9 6.07093 33.9C5.07477 33.9 4.51091 33.3267 4.50151 32.3306C4.50151 31.0055 4.50151 29.671 4.50151 28.2708C3.92825 28.2708 3.37379 28.2708 2.81932 28.2708C2.39642 28.2708 1.97352 28.2708 1.55063 28.2708C0.639046 28.2614 0 27.6881 0 26.8705C0 26.0529 0.629645 25.4609 1.54122 25.4609C5.66683 25.4609 9.79244 25.4609 13.9274 25.4609C14.5665 25.4609 15.0552 25.2353 15.3465 24.6526C15.807 23.7129 15.1303 22.6603 14.0496 22.6509C12.7339 22.6321 11.4276 22.6509 10.112 22.6509C7.25505 22.6509 4.38874 22.6509 1.53183 22.6509C0.385306 22.6509 -0.319522 21.6078 0.159763 20.6398C0.441694 20.0759 0.911579 19.841 1.53183 19.841C4.28536 19.841 7.0389 19.841 9.78304 19.841C10.7416 19.841 11.39 19.1644 11.3055 18.281C11.2303 17.5292 10.7792 17.1345 9.924 17.1251C8.34518 17.1157 6.76637 17.1251 5.18755 17.1251C4.41693 17.1251 3.65572 17.1345 2.8851 17.1251C2.02991 17.1157 1.40026 16.4954 1.40966 15.6966C1.42845 14.9166 2.04871 14.3245 2.8851 14.3151C3.40198 14.3057 3.91885 14.3151 4.47332 14.3151C4.48272 14.1648 4.50151 14.0332 4.50151 13.9016C4.50151 13.0277 4.49211 12.1537 4.50151 11.2703C4.51091 10.4151 5.09357 9.83242 5.94876 9.81363C6.06153 9.81363 6.16491 9.81363 6.27768 9.81363C14.4537 9.81363 22.6297 9.81363 30.8058 9.81363C30.9937 9.81363 31.1723 9.81363 31.426 9.81363C31.426 10.011 31.426 10.1707 31.426 10.3399C31.426 12.9055 31.426 15.4711 31.426 18.0366C31.426 19.1268 31.9711 19.6718 33.0706 19.6718C36.529 19.6718 39.9779 19.6343 43.4363 19.6906C45.1279 19.7188 46.5845 20.3767 47.4867 21.9085C47.7405 22.3408 47.8532 22.8577 48.0318 23.337C48.0318 26.4852 48.0318 29.671 48.0318 32.8663ZM11.4464 32.8099C11.4464 34.2383 12.6024 35.3943 14.0402 35.3943C15.4405 35.3943 16.5964 34.2383 16.6058 32.8287C16.6058 31.419 15.4593 30.2443 14.059 30.2443C12.6211 30.2349 11.4558 31.3814 11.4464 32.8099ZM36.3128 32.8193C36.3128 34.2477 37.4782 35.3943 38.916 35.3943C40.3163 35.3943 41.4722 34.2289 41.4722 32.8193C41.4722 31.4096 40.3163 30.2443 38.916 30.2443C37.4782 30.2349 36.3128 31.3908 36.3128 32.8193Z" fill="#3EA57A"/>
<path d="M34.2642 16.7962C34.2642 14.5407 34.2642 12.3228 34.2642 10.105C38.1266 10.838 40.1847 13.6103 41.9515 16.7962C39.3765 16.7962 36.8391 16.7962 34.2642 16.7962Z" fill="#3EA57A"/>
</svg>
