<svg width="37" height="36" viewBox="0 0 37 36" fill="none" xmlns="http://www.w3.org/2000/svg">
<path d="M0.503123 17.975C0.503123 15.5211 0.503123 13.0673 0.503123 10.6135C0.515641 5.31768 4.17072 0.998435 9.39047 0.134585C9.96627 0.0344288 10.5671 0.00938967 11.1679 0.00938967C16.0622 -0.00312989 20.944 -0.00312989 25.8383 0.00938967C31.1833 0.00938967 35.4767 3.62754 36.3654 8.88576C36.4656 9.46166 36.4906 10.0626 36.4906 10.6635C36.5031 15.5462 36.5031 20.4413 36.4906 25.3239C36.4906 30.6698 32.8981 34.9515 27.6283 35.8654C27.0275 35.9656 26.4141 35.9906 25.8133 35.9906C20.944 36.0031 16.0622 36.0031 11.193 35.9906C5.83553 35.9906 1.56711 32.41 0.640827 27.1393C0.540688 26.5383 0.515653 25.9249 0.515653 25.3239C0.490618 22.8826 0.503123 20.4288 0.503123 17.975ZM20.0052 18.8638C20.0052 18.5759 20.0052 18.4131 20.0052 18.2379C20.0052 15.2081 20.0052 12.1784 20.0052 9.14867C20.0052 8.41002 19.6672 7.85915 19.0664 7.62128C18.0525 7.22066 17.0136 7.94679 17.0136 9.08607C17.001 12.1659 17.0136 15.2332 17.0136 18.313C17.0136 18.4632 17.0136 18.626 17.0136 18.9014C15.5866 17.4617 14.2597 16.1346 12.9329 14.8075C12.2319 14.1064 11.3181 14.0689 10.6923 14.7074C10.0789 15.3333 10.1165 16.2347 10.8049 16.9108C12.983 19.1017 15.1735 21.2926 17.3641 23.4711C18.0775 24.1847 18.9287 24.1847 19.6422 23.4836C21.8453 21.2926 24.0358 19.0892 26.2389 16.8858C26.9023 16.2222 26.9148 15.3208 26.314 14.7074C25.7006 14.0814 24.7869 14.1064 24.1109 14.7825C22.8842 16.0094 21.6575 17.2363 20.4308 18.4632C20.3056 18.5884 20.193 18.6886 20.0052 18.8638ZM18.5532 25.5117C18.2278 25.5117 17.9023 25.5117 17.5643 25.5117C15.1485 25.5117 12.7201 25.5117 10.3042 25.5117C9.4781 25.5117 8.8397 26.0751 8.7646 26.8513C8.6895 27.59 9.17768 28.2786 9.91621 28.4538C10.129 28.5039 10.3543 28.5039 10.5671 28.5039C15.4239 28.5039 20.2806 28.5039 25.1373 28.5039C25.6881 28.5039 26.2264 28.5164 26.7771 28.5039C27.4406 28.4789 27.9037 28.1534 28.1541 27.5399C28.5546 26.5383 27.8035 25.5117 26.6645 25.5117C23.9482 25.4992 21.2444 25.5117 18.5532 25.5117Z" fill="#3EA57A"/>
</svg>
