<svg width="16" height="16" viewBox="0 0 16 16" fill="none" xmlns="http://www.w3.org/2000/svg">
<path d="M12.6188 3H3.07333C2.65153 3.00045 2.24714 3.16821 1.94889 3.46646C1.65063 3.76472 1.48287 4.16911 1.48242 4.59091V11.4091C1.48287 11.8309 1.65063 12.2353 1.94889 12.5335C2.24714 12.8318 2.65153 12.9995 3.07333 13H12.6188C13.0406 12.9995 13.445 12.8318 13.7432 12.5335C14.0415 12.2353 14.2092 11.8309 14.2097 11.4091V4.59091C14.2092 4.16911 14.0415 3.76472 13.7432 3.46646C13.445 3.16821 13.0406 3.00045 12.6188 3ZM12.2159 5.63153L8.12504 8.81335C8.04526 8.87537 7.9471 8.90903 7.84606 8.90903C7.74502 8.90903 7.64685 8.87537 7.56708 8.81335L3.47617 5.63153C3.42811 5.59524 3.38774 5.54975 3.3574 5.49772C3.32707 5.44568 3.30738 5.38814 3.29948 5.32843C3.29158 5.26872 3.29563 5.20803 3.31138 5.1499C3.32714 5.09177 3.35429 5.03734 3.39126 4.9898C3.42823 4.94225 3.47428 4.90252 3.52673 4.87292C3.57919 4.84333 3.63701 4.82445 3.69682 4.81739C3.75664 4.81033 3.81726 4.81523 3.87516 4.8318C3.93307 4.84837 3.9871 4.87629 4.03413 4.91392L7.84606 7.87869L11.658 4.91392C11.7533 4.84194 11.8731 4.81037 11.9915 4.82604C12.11 4.8417 12.2174 4.90335 12.2908 4.99765C12.3641 5.09194 12.3973 5.21131 12.3833 5.32993C12.3693 5.44855 12.3092 5.5569 12.2159 5.63153Z" fill="#5DB694"/>
</svg>
