<svg width="16" height="16" viewBox="0 0 16 16" fill="none" xmlns="http://www.w3.org/2000/svg">
<path d="M8 15.4286L6.958 14.4675C5.56933 13.201 4.42367 12.1159 3.521 11.2122C2.61833 10.3085 1.90633 9.50448 1.385 8.80022C0.864333 8.09596 0.503333 7.45215 0.302 6.86879C0.100667 6.28543 0 5.68773 0 5.07569C0 3.80924 0.423667 2.74192 1.271 1.87372C2.11833 1.00551 3.16 0.571411 4.396 0.571411C5.07667 0.571411 5.73633 0.721007 6.375 1.0202C7.01367 1.31871 7.55533 1.73847 8 2.27947C8.44467 1.73847 8.98633 1.31871 9.625 1.0202C10.2637 0.721007 10.9233 0.571411 11.604 0.571411C12.84 0.571411 13.8817 1.00551 14.729 1.87372C15.5763 2.74192 16 3.80924 16 5.07569C16 5.68773 15.9027 6.27826 15.708 6.84727C15.514 7.41628 15.1563 8.04951 14.635 8.74694C14.1143 9.44437 13.3993 10.2521 12.49 11.1702C11.58 12.0883 10.4167 13.2017 9 14.5105L8 15.4286ZM8 13.3578C9.292 12.1767 10.3547 11.1698 11.188 10.3372C12.0213 9.50448 12.6843 8.7787 13.177 8.15983C13.6703 7.54095 14.014 6.9897 14.208 6.50607C14.4027 6.02176 14.5 5.54497 14.5 5.07569C14.5 4.23617 14.2223 3.53157 13.667 2.96187C13.111 2.39286 12.4233 2.10836 11.604 2.10836C11.118 2.10836 10.6633 2.2115 10.24 2.4178C9.816 2.62409 9.45133 2.91235 9.146 3.28258L8.417 4.15762H7.583L6.854 3.28258C6.54867 2.91235 6.17733 2.62409 5.74 2.4178C5.302 2.2115 4.854 2.10836 4.396 2.10836C3.57667 2.10836 2.889 2.39286 2.333 2.96187C1.77767 3.53157 1.5 4.23617 1.5 5.07569C1.5 5.54497 1.59033 6.01083 1.771 6.47328C1.95167 6.93642 2.28133 7.47366 2.76 8.08503C3.23933 8.69707 3.89933 9.42285 4.74 10.2624C5.58 11.1026 6.66667 12.1344 8 13.3578Z" fill="#BBBBBB"/>
</svg>
