<svg width="16" height="16" viewBox="0 0 16 16" fill="none" xmlns="http://www.w3.org/2000/svg">
<path d="M15.9998 11.9162C15.971 12.0632 15.946 12.2107 15.9123 12.3565C15.5477 13.9267 14.1581 14.973 12.5168 14.9143C10.9868 14.8598 9.67351 13.6685 9.43018 12.1153C9.1156 10.1064 10.6956 8.28663 12.7298 8.31454C14.396 8.33745 15.7585 9.55244 15.9718 11.2044C15.9756 11.2339 15.9902 11.2623 15.9993 11.291C15.9998 11.4997 15.9998 11.7079 15.9998 11.9162ZM12.696 10.3097C11.9739 10.3118 11.3973 10.8886 11.3968 11.6096C11.3964 12.3356 11.9831 12.92 12.7081 12.9154C13.4243 12.9109 14.0035 12.3244 14.0006 11.6055C13.9985 10.8861 13.4156 10.3076 12.696 10.3097Z" fill="#3EA57A"/>
<path d="M0 4.01188C0.03 3.87068 0.0575 3.72907 0.09 3.5887C0.453333 2.03341 1.86875 0.973779 3.48292 1.0475C5.03958 1.11873 6.34792 2.32081 6.56875 3.88318C6.81875 5.65131 5.60958 7.31198 3.86208 7.60021C2.06583 7.89678 0.384167 6.72135 0.05625 4.94031C0.0395834 4.84951 0.01875 4.75912 0 4.66874C0 4.44965 0 4.23056 0 4.01188ZM3.30875 5.64465C4.03 5.6434 4.60875 5.06318 4.60667 4.34343C4.60458 3.62119 4.02708 3.04264 3.3075 3.04181C2.58125 3.04097 1.99708 3.6266 2 4.35218C2.00333 5.06901 2.58708 5.6459 3.30875 5.64465Z" fill="#3EA57A"/>
<path d="M13.9965 1.04167C14.344 1.05792 14.6536 1.23369 14.8331 1.59689C15.0123 1.95885 14.9723 2.31331 14.7361 2.64195C14.694 2.70067 14.6419 2.75316 14.5906 2.80439C10.6694 6.7251 6.74564 10.6429 2.82939 14.5686C2.29314 15.1063 1.51147 14.9693 1.19231 14.4082C0.96314 14.0051 1.03481 13.5298 1.38397 13.1795C2.05272 12.5081 2.72397 11.8391 3.39397 11.1694C6.65272 7.91177 9.91189 4.65416 13.169 1.39488C13.3852 1.17954 13.6298 1.04292 13.9965 1.04167Z" fill="#3EA57A"/>
</svg>
