<svg width="16" height="16" viewBox="0 0 16 16" fill="none" xmlns="http://www.w3.org/2000/svg">
<path fill-rule="evenodd" clip-rule="evenodd" d="M1.1687 5.06346C1.28127 5.06365 1.395 5.06385 1.51037 5.06385C1.49628 5.12882 1.48924 5.16913 1.47906 5.20866C1.26773 6.00365 1.056 6.79883 0.844293 7.59393L0.580769 8.58372C0.574119 8.60877 0.566684 8.63382 0.560425 8.65887C0.515015 8.84204 0.55063 8.96181 0.670796 9.02719C0.801139 9.09802 0.92678 9.0628 1.05085 8.91211C1.60839 8.23568 2.16568 7.55901 2.72299 6.88231C3.38012 6.08441 4.03727 5.28647 4.69489 4.48887C4.781 4.38476 4.83071 4.27595 4.76652 4.14639C4.70546 4.02271 4.59234 3.99727 4.46396 3.99805C4.07411 4.00119 3.68387 3.99923 3.28346 3.99923C3.28855 3.97825 3.29327 3.95848 3.29778 3.93955C3.30785 3.89736 3.31692 3.85935 3.32691 3.82153C3.62986 2.68646 3.93281 1.55179 4.23537 0.416722C4.28743 0.220629 4.25181 0.1036 4.12303 0.0339389C3.99348 -0.0361236 3.87175 0.00144943 3.74572 0.154484C2.94965 1.12049 2.15392 2.0865 1.35819 3.0525C0.942633 3.557 0.527075 4.06149 0.111469 4.56598C0.0284947 4.66618 -0.038435 4.76912 0.0253604 4.90572C0.0911146 5.04701 0.213239 5.06619 0.3518 5.06501C0.621755 5.06251 0.89171 5.06298 1.1687 5.06346ZM4.99901 15.9996C4.80253 15.8818 4.77278 15.807 4.83305 15.5742C5.40177 13.3749 5.97088 11.1756 6.53999 8.9759C6.54607 8.95254 6.55171 8.92899 6.55781 8.90287C6.56469 8.87344 6.57215 8.84074 6.58149 8.80134H6.40222H4.43381C4.42197 8.80134 4.41009 8.8014 4.39821 8.80147C4.38917 8.80152 4.38013 8.80157 4.37108 8.80159C4.35034 8.80162 4.3296 8.80153 4.30895 8.80094C4.18761 8.79742 4.08311 8.76376 4.02675 8.64321C3.97 8.52188 4.01305 8.42207 4.08976 8.32735C4.17627 8.22024 4.2627 8.11309 4.34909 8.00591C4.4533 7.87663 4.55744 7.74731 4.66157 7.618C4.80741 7.43689 4.95323 7.2558 5.09921 7.07487C5.71193 6.31531 6.32459 5.55576 6.93726 4.7962C8.17466 3.26214 9.41205 1.72807 10.6498 0.194016C10.6592 0.182482 10.6684 0.169668 10.6776 0.156739C10.7038 0.120103 10.7306 0.082587 10.7653 0.0707188C10.8518 0.0413637 10.9645 0.00496593 11.0357 0.0374554C11.1074 0.070327 11.1536 0.179138 11.1876 0.263687C11.2021 0.300209 11.1872 0.350147 11.1733 0.396808L11.1732 0.397037C11.1698 0.408313 11.1665 0.419378 11.1637 0.430033C10.7846 1.89622 10.4051 3.36241 10.0256 4.82861L9.93072 5.19514C9.7726 5.80606 9.61448 6.41698 9.45639 7.02789C9.45235 7.04333 9.44861 7.05881 9.4449 7.07496C9.43957 7.09807 9.43429 7.12256 9.4282 7.1503C9.42495 7.1651 9.42148 7.18083 9.41764 7.19776H9.60004C9.75937 7.19776 9.91869 7.19768 10.078 7.19759C10.5957 7.1973 11.1133 7.19703 11.6311 7.19972C11.7117 7.20011 11.8017 7.21068 11.871 7.24747C12.0276 7.33005 12.0385 7.50775 11.9047 7.67488C11.7609 7.85453 11.6169 8.03382 11.4726 8.21296C11.3563 8.35744 11.2398 8.50184 11.1233 8.64625C11.0475 8.7402 10.9718 8.83415 10.896 8.92815L10.041 9.98828C8.47939 11.9247 6.91774 13.8611 5.35441 15.7961C5.31156 15.8493 5.25672 15.8928 5.20187 15.9363C5.17556 15.9572 5.14925 15.9781 5.12426 16C5.10438 15.9998 5.08449 15.9997 5.06465 15.9997C5.04271 15.9996 5.0208 15.9996 4.99901 15.9996ZM11.9368 15.9996C11.7395 15.8857 11.7051 15.8027 11.7649 15.5769C12.0745 14.4121 12.3849 13.2473 12.6953 12.0829C12.7004 12.0633 12.7055 12.0433 12.7169 11.9995H12.3904C12.343 11.9995 12.2956 11.9994 12.2482 11.9993L12.1489 11.999C11.9535 11.9984 11.7581 11.9979 11.563 12.0007C11.4256 12.0026 11.2976 11.9877 11.2307 11.8496C11.1602 11.7044 11.2342 11.5924 11.325 11.4828C11.8051 10.9018 12.2843 10.3199 12.7634 9.73804L12.7655 9.73548C12.9373 9.52688 13.1091 9.31829 13.2809 9.10976C13.8269 8.44712 14.3725 7.78447 14.9185 7.12183C14.9243 7.11476 14.9301 7.10764 14.9358 7.10052L14.9362 7.10007C14.9532 7.07897 14.9703 7.05787 14.9886 7.03807C15.0849 6.9367 15.1988 6.89873 15.3256 6.97114C15.4489 7.04159 15.4872 7.15392 15.4505 7.2917C15.326 7.75865 15.2019 8.22558 15.0778 8.69252C14.8935 9.38531 14.7091 10.0781 14.5252 10.7709C14.5122 10.8198 14.5021 10.8695 14.4872 10.9345C14.5467 10.9345 14.6058 10.9346 14.6646 10.9348C14.7198 10.935 14.7747 10.9352 14.8294 10.9355H14.8303C15.105 10.9367 15.3736 10.9378 15.6423 10.9317C15.8063 10.9278 15.9237 10.9799 16 11.1243V11.2805C15.9843 11.301 15.9689 11.3217 15.9534 11.3424C15.9225 11.3837 15.8917 11.4249 15.8591 11.4648L15.4089 12.0117L15.4025 12.0195C14.366 13.2785 13.3295 14.5376 12.291 15.7945C12.2471 15.8474 12.1928 15.8916 12.1384 15.9359C12.1127 15.9568 12.087 15.9778 12.0624 15.9996H11.9368Z" fill="#3EA57A"/>
</svg>
