<svg width="20" height="20" viewBox="0 0 20 20" fill="none" xmlns="http://www.w3.org/2000/svg">
<path fill-rule="evenodd" clip-rule="evenodd" d="M3.0009 1.71136C1.64697 2.52355 1.22732 3.16046 1.03577 4.69247C0.802944 6.55632 1.71484 9.01335 3.53251 11.4195C4.88365 13.2081 7.73356 15.9504 9.384 17.0504C11.4359 18.418 12.6845 18.8959 14.4336 18.9828C16.5441 19.0876 17.308 18.7388 18.2582 17.236C19.6526 15.0308 19.4913 14.5773 16.6454 12.6968C15.2215 11.7562 14.3979 11.3205 14.0435 11.3205C13.5142 11.3205 12.4974 11.7518 12.4869 11.981C12.4835 12.0506 12.3252 12.2946 12.1349 12.5231L11.7889 12.9385L11.0516 12.4507C10.096 11.8183 7.85741 9.54863 7.49146 8.84105C7.20791 8.29265 7.20895 8.28915 7.8233 7.75038C8.53245 7.12816 8.81916 6.62769 8.81916 6.01142C8.81916 5.49644 6.20347 1.45999 5.69234 1.18641C5.01834 0.825705 4.2163 0.98209 3.0009 1.71136ZM6.01105 4.39684L7.0977 6.04466L6.20907 6.9011C5.7205 7.37218 5.32062 7.91446 5.32062 8.10618C5.32062 9.15959 8.20324 12.5574 10.2823 13.9547C11.6512 14.8748 12.2916 14.8823 13.1129 13.9881C13.4444 13.6274 13.7159 13.273 13.7162 13.2009C13.7182 12.8955 14.2311 13.1318 15.7716 14.1476C16.7504 14.7929 17.3722 15.3141 17.3217 15.4463C17.275 15.5677 17.0364 15.9846 16.7915 16.3727C15.3835 18.603 11.319 17.1408 7.08843 12.8817C3.84073 9.61195 2.34475 6.69172 2.76633 4.4446C2.85589 3.96705 3.0609 3.7162 3.70709 3.29358C4.16155 2.99638 4.62143 2.75218 4.72901 2.75113C4.83659 2.74991 5.4135 3.49055 6.01105 4.39684Z" fill="#0E0E0E"/>
<path d="M10.9611 2.43242C10.7281 2.13802 10.8355 1.52857 11.1605 1.29977C11.474 1.07919 12.6245 1.32199 13.5943 1.81336C14.8679 2.45884 15.6899 3.16589 16.4848 4.30012C17.7798 6.14788 18.0983 7.49132 17.3251 7.84362C16.7091 8.12438 16.3016 7.81563 15.943 6.79616C15.3343 5.0656 13.8061 3.55651 12.1076 3.00863C11.5979 2.8442 11.0818 2.58478 10.9611 2.43242Z" fill="#3EA57A"/>
<path d="M11.0899 5.7424C10.1944 5.47423 9.91348 4.98531 10.3085 4.38251C10.5609 3.99732 10.68 3.95551 11.2312 4.0589C12.7072 4.33581 14.089 5.4375 14.8541 6.94729C15.3485 7.92286 15.4095 8.55575 15.0387 8.86345C14.519 9.29482 14.0146 8.99867 13.4134 7.90939C12.73 6.67108 12.0394 6.027 11.0899 5.7424Z" fill="#3EA57A"/>
</svg>
